<svg xmlns="http://www.w3.org/2000/svg" width="16" height="16" viewBox="0 0 16 16">
  <g fill="none" fill-rule="evenodd" stroke-width="2">
    <path fill="#236DE7" stroke="#236DE7" d="M3.8458278,1 C2.77756757,1 2.39725995,1.07344079 2.0063303,1.28251225 C1.69170989,1.45077309 1.45077309,1.69170989 1.28251225,2.0063303 C1.07344079,2.39725995 1,2.77756757 1,3.8458278 L1,12.1541722 C1,13.2224324 1.07344079,13.60274 1.28251225,13.9936697 C1.45077309,14.3082901 1.69170989,14.5492269 2.0063303,14.7174877 C2.39725995,14.9265592 2.77756757,15 3.8458278,15 L12.1541722,15 C13.2224324,15 13.60274,14.9265592 13.9936697,14.7174877 C14.3082901,14.5492269 14.5492269,14.3082901 14.7174877,13.9936697 C14.9265592,13.60274 15,13.2224324 15,12.1541722 L15,3.8458278 C15,2.77756757 14.9265592,2.39725995 14.7174877,2.0063303 C14.5492269,1.69170989 14.3082901,1.45077309 13.9936697,1.28251225 C13.60274,1.07344079 13.2224324,1 12.1541722,1 L3.8458278,1 Z"/>
    <polyline stroke="#FFF" points="4 8.5 7.2 11 12 5"/>
  </g>
</svg>
