<svg xmlns="http://www.w3.org/2000/svg" width="16" height="16" viewBox="0 0 16 16">
  <path fill="#FFF" fill-rule="evenodd" stroke="#999" d="M3.8458278,0.5 C2.70208522,0.5 2.24379883,0.588499184 1.77053087,0.841605655 C1.36877622,1.05646639 1.05646639,1.36877622 0.841605655,1.77053087 C0.588499184,2.24379883 0.5,2.70208522 0.5,3.8458278 L0.5,12.1541722 C0.5,13.2979148 0.588499184,13.7562012 0.841605655,14.2294691 C1.05646639,14.6312238 1.36877622,14.9435336 1.77053087,15.1583943 C2.24379883,15.4115008 2.70208522,15.5 3.8458278,15.5 L12.1541722,15.5 C13.2979148,15.5 13.7562012,15.4115008 14.2294691,15.1583943 C14.6312238,14.9435336 14.9435336,14.6312238 15.1583943,14.2294691 C15.4115008,13.7562012 15.5,13.2979148 15.5,12.1541722 L15.5,3.8458278 C15.5,2.70208522 15.4115008,2.24379883 15.1583943,1.77053087 C14.9435336,1.36877622 14.6312238,1.05646639 14.2294691,0.841605655 C13.7562012,0.588499184 13.2979148,0.5 12.1541722,0.5 L3.8458278,0.5 Z"/>
</svg>
