<svg height="256" viewBox="0 0 256 256" width="256" xmlns="http://www.w3.org/2000/svg" xmlns:xlink="http://www.w3.org/1999/xlink"><defs><path id="a" d="m0 0h256v256h-256z"/><mask id="b" fill="#fff"><use fill="#fff" fill-rule="evenodd" xlink:href="#a"/></mask></defs><g fill="none" fill-rule="evenodd"><use fill="#a5ddf1" xlink:href="#a"/><g mask="url(#b)"><g transform="translate(0 71)"><g fill="none" fill-rule="evenodd" transform="translate(0 53)"><path d="m63.2262342 98.525939c-.4480965-.3439116-1.1648692-3.0952043-1.6129657-3.3244787-.3360724-.1146372-.5601206-.3439116-.7841689-.4585488-2.0164342-5.5025853-5.6012062-10.0880731-10.1941953-13.1832774-4.480965-3.0952043-9.9701471-4.8147622-15.6833774-4.5854878-1.6803619.1146372-3.2486997.3439116-4.9290615.6878232-2.1284584.4585487-4.2569168 1.2610091-6.1613269 2.2927439-.5601206.3439115-1.1202412.6878231-1.6803618 1.0317347-.2240483-.8024604-.5601207-1.6049207-.896193-2.2927439-1.792386-4.0123018-4.5929891-7.3367805-8.065737-9.7441616 7.7296646-3.8976646 13.6669432-10.5466219 16.6915946-18.4565884 0-.1146372.1120241-.3439116.1120241-.4585488s.1120241-.2292744.1120241-.3439116c.5601206-1.4902835 1.0082171-2.9805671 1.3442895-4.5854878.2240482-1.146372.4480965-2.2927439.5601206-3.5537531.3360724-3.553753.2240483-7.3367804-.6721447-11.1198079-.4480965-1.9488323-1.1202413-3.7830274-1.792386-5.6172226-1.6803619-4.126939-4.1448926-7.680692-7.0575199-10.7758963-.7841688-.9170976-1.6803618-1.7195579-2.5765548-2.5220183-1.3442895-1.146372-2.8006031-2.17810672-4.3689409-3.09520428-3.3607237-1.94883232-7.16954396-3.43911586-11.09038832-4.12693903-1.45631362-.22927439-3.02465136-.34391158-4.48096498-.45854878 1.23226537-.45854878 2.46453074-.80246036 3.69679611-1.14637195 8.62585759-1.94883232 17.13969109.34391159 23.52506619 5.50258537 1.2322653.68782317 2.2404825 1.71955793 3.1366755 2.98056707.6721447.8024604 1.3442894 1.6049207 1.9044101 2.4073811 8.8499058.4585488 16.6915945 6.7635945 18.8200529 16.0492073 1.9044101 8.2538781-1.3442895 16.2784818-7.3935922 21.093244 3.8088202.9170975 7.3935922 2.6366555 10.6422918 4.9293994 4.3689409-4.1269391 9.858123-7.1075061 16.0194498-8.7124269 7.6176405-1.8341951 15.1232568-.9170975 21.7326802 1.9488323 2.9126272-1.8341951 6.4973992-2.980567 10.1941956-2.980567 10.306219.1146372 18.708029 8.7124268 18.596004 19.2590488v1.0317347c5.601207.4585488 9.970147 5.273311 9.970147 11.119808 0 .9170975-.112024 1.7195579-.336072 2.5220183 16.803619-2.0634696 32.711044 9.1709756 36.631889 26.4811918.112024.917098.336072 1.834195.448096 2.751293 8.40181 3.897665 14.899209 11.692994 17.139691 21.551793.100822.459695.191562.918244.272219 1.375646h-2.762515c-.559-1.25757-1.215462-2.442919-1.990669-3.553753-4.480965-6.648957-12.098605-10.546622-20.164342-10.20271-.784169 0-1.456314.114637-2.240483.229274-1.792386-2.86593-5.041085-4.585488-8.513833-4.470851-.672145 0-1.232265.114638-1.90441.229275-.084018.043562-.18372.069928-.287902.092856l-.208365.043562c-.104182.022927-.203884.049294-.287902.092856-.448096.114637-.896193.229275-1.232265.458549-.224049-.687823-.448097-1.261009-.672145-1.834195-.448097-.917098-.896193-1.834195-1.34429-2.636656-.336072-.573186-.672144-1.146372-1.008217-1.719558-3.136675-4.585487-8.065737-8.253878-13.890991-10.6612588-4.368941-1.7195579-9.298002-2.7512927-14.563136-2.7512927-.672145 0-1.232266 0-1.90441 0-2.352507.1146372-4.480965.3439116-6.609424.8024604-3.584772.8024604-6.452771 4.4708511-9.4774224 6.0757711-2.2404825 1.146372-4.1448926 2.522019-5.9372786 4.126939-1.5683377-.229274-3.5173759-2.86593-5.1977377-2.980567-.5601206 0-1.1202413 0-1.6803619 0-1.5683377 0-3.1366755.114637-4.7050132.343912-1.1202413.229274-2.2404825.458549-3.3607238.687823-.5601206.114637-1.1202412.229274-1.6803618.458549-1.792386.573186-3.584772 1.261009-5.1531098 2.178106 0-.229274-.1120241-.573186-.1120241-.80246 0-.573186-.1120241-1.031735-.2240482-1.604921-.1120241-.687823-.3360724-1.375646-.5601206-2.063469-.2240483-.687823-.4480965-1.261009-.7841689-1.834195-.7841689-1.4902838-1.792386-2.8659302-3.0246514-4.0123021-.0840181-.0859779-.1680362-.1559066-.2520543-.2212498l-.1680361-.1306864c-.0840181-.0653432.2126641 2.2721092.128646 2.1861313zm26.7737658-13.2693018c-.0011111-1.2666372-1.2222222-2.4159292-2.7777778-2.300885-1.4444444 0-2.6666666 1.1504425-2.6666666 2.4159292h-2.1111112v-4.3716814c-3.7777777 0-6.7777777 1.7256637-6.7777777 3.9115044v.3451328h-3.6666667c0 1.0353982 1.8888889 1.8407079 4.4444444 2.1858407-.5555555.5752212-.7777777 1.3805309-.7777777 2.0707964 0 2.4159292 3 4.4867257 6.7777777 4.4867257v-6.5575221c2.7766667-.3451328 4.7766667-1.1504425 4.7777778-2.1858407zm18.567308-27.2606681c-4.091346-2.1719756-9.067308-.685887-11.0576926 3.4294352-.5528846 1.0288306-.7740385 2.0576611-.8846154 3.2008062l-4.3125-4.2296367c-2.875 2.9721771-2.875 7.6590719-.1105769 10.40262 0 .1143145.1105769.1143145.1105769.1143145h-4.3125c0 1.7147176 4.3125 3.0864917 9.7307692 3.0864917 5.2977408 0 9.5372598-1.3111874 9.7241348-2.9721772h3.545096c-.001106-1.7147176-1.548077-3.0864916-3.538462-2.9721771-1.837788 0-3.358221 1.2014454-3.425673 2.8578626h3.425673l-.003317.0800202-.003317.0342943h-3.42125c0-.0377237.001106-.0765907.002211-.1143145h-1.992596z" fill="#80bdd4"/><path d="m205.903728 63.6153846c-1.883206 0-3.544859.8076923-4.984958 2.0769231-2.104759-4.0384615-5.871172-6.6923077-10.080691-6.6923077-4.320297 0-7.975932 2.7692308-10.191469 6.9230769-.110777 0-.110777 0-.221554 0-3.544858 0-6.425056 3.5769231-6.425056 8.0769231h39.990437c.221553-5.7692308-3.434082-10.3846154-8.086709-10.3846154" fill="#80bdd4" fill-rule="nonzero"/><path d="m0 3h.56062398c1.56974713 0 3.02736948.23076923 4.48499182.46153846 3.92436784.69230769 7.7366109 2.07692308 11.1003548 4.15384616 1.5697471.92307692 3.0273694 1.96153846 4.372867 3.11538458.8969983.8076923 1.7939967 1.6153846 2.5788703 2.5384616 3.0273695 3.1153846 5.3819902 6.6923077 7.0638621 10.8461538.7848736 1.8461539 1.3454975 3.6923077 1.7939967 5.6538462.8969984 3.6923077 1.0091232 7.5.6727488 11.1923077-.1121248 1.1538461-.3363744 2.4230769-.560624 3.576923-.3363744 1.5-.7848736 3.1153847-1.3454975 4.6153847 0 .1153846-.1121248.2307692-.1121248.3461538s-.1121248.3461538-.1121248.4615385c-3.1394943 7.9615384-8.9699837 14.7692307-16.7065946 18.576923 3.4758687 2.423077 6.2789886 5.7692308 8.0729853 9.8076923.3363744.6923077.6727488 1.5.8969984 2.3076924.560624-.3461539 1.1212479-.6923077 1.6818719-1.0384616 1.9061215-1.0384615 3.9243679-1.7307692 6.1668638-2.3076923 1.6818719-.4615385 3.251619-.5769231 4.933491-.6923077 5.7183645-.2307692 11.1003547 1.5 15.6974713 4.6153846 4.5971167 3.1153846 8.1851101 7.7307693 10.2033564 13.2692308.3363744.1153846.560624.3461538.7848736.4615385.4484992.2307692.8969984.576923 1.2333728.9230769.2242495.1153846.4484991.3461538.6727487.5769231 1.2333728 1.1538461 2.2424959 2.5384615 3.0273695 4.0384615.3363744.576923.560624 1.269231.7848736 1.846154.2242496.692308.4484992 1.384615.560624 2.076923.1121248.576923.1121248 1.038461.2242495 1.615385.1121248.230769.1121248.576923.1121248.807692 1.5697472-.923077 3.3637439-1.615385 5.1577406-2.192308.560624-.115384 1.121248-.346154 1.681872-.461538 1.1212479-.346154 2.2424959-.576923 3.3637438-.692308 1.4576224-.230769 3.0262483-.346154 4.7092414-.346154h1.681872c1.6829932 0 3.251619.230769 4.8213662.576923 1.7939967-1.5 3.812243-3 5.9426141-4.1538459 2.9152447-1.6153846 6.2789885-2.8846154 9.8669825-3.6923077 2.130371-.4615385 4.371745-.6923077 6.615362-.8076923h1.906122c5.270987 0 10.203356 1.0384615 14.576223 2.7692307 5.942615 2.4230772 10.763981 6.1153842 13.903475 10.7307692.336374.576923.672749 1.153846 1.009123 1.730769.560624.923077 1.009123 1.73077 1.345498 2.653846.224249.576924.448499 1.269231.672749 1.846154.448499-.230769.784873-.346154 1.233372-.461538.084094-.043846.183885-.070385.288161-.093462l.208552-.043846c.104276-.023077.204067-.050769.288161-.093461.672749-.115385 1.345497-.23077 1.906121-.23077 3.363744-.115384 6.615363 1.615385 8.521485 4.5.784873-.115384 1.457622-.230769 2.242496-.230769 8.072985-.461538 15.697471 3.576923 20.182463 10.269231.775904 1.118077 1.457622 2.311154 2.03058 3.576923h-183z" fill="#042340"/><g fill-rule="nonzero"><path d="m85.9105058 35h13.0894942c0-4.95-5.1906615-9-11.5097276-9-3.385214 0-6.3190662 1.125-8.463035 2.925-.3385214 0-.6770428-.1125-1.1284047-.1125-4.4007782 0-7.8988327 2.8125-7.8988327 6.1875z" fill="#80bdd4"/><path d="m87.2222222 83.0707965c-1.4444444 0-2.6666666 1.0353982-2.6666666 2.3008849h-2.1111112v-4.3716814c-3.7777777 0-6.7777777 1.7256637-6.7777777 3.9115044v.3451328h-3.6666667c0 .920354 1.7777778 1.7256637 4.4444444 2.1858407-.4444444.5752212-.7777777 1.2654867-.7777777 2.0707964 0 2.5309735 3 4.4867257 6.7777777 4.4867257v-5.1769912-1.3805309c2.7777778-.3451328 4.7777778-1.1504425 4.7777778-2.1858407h2.7777778c-.1111111-1.1504425-1.3333333-2.1858407-2.7777778-2.1858407" fill="#042340"/><path d="m44.0255235 3.89312977c-1.4533456 2.63358779-.6707749 6.06870229 1.9005288 7.90076333l.4471832-.6870229c1.0061623 2.2900764 3.1302828 3.8931298 5.8133823 3.8931298v-10.99236641c1.9005288-.34351145 3.2420785-1.03053435 3.2420785-1.83206107h2.5713037c0-1.25954199-1.1179581-2.17557252-2.5713037-2.17557252-1.4533455 0-2.5713037 1.03053435-2.5713037 2.17557252h-1.0061623c-2.0123246-1.3740458-4.3600367-1.25954199-6.1487696 0h-4.6954242c-.1117958.6870229 1.1179582 1.3740458 3.018487 1.71755725" fill="#042340"/><path d="m107.444444 68c-1.888888 0-3.444444 1.3846154-3.444444 3h7c0-1.6153846-1.555556-3-3.555556-3" fill="#042340"/><path d="m109 57.9959691c-4.177419-2.1719756-9.2580645-.685887-11.2903226 3.4294352-.5645161 1.0288306-.7903226 2.1719756-.9032258 3.2008062l-4.4032258-4.2296367c-2.8225806 3.0864916-2.9354839 7.7733864-.1129032 10.40262l.1129032.1143145h-4.4032258c0 1.7147176 4.4032258 3.0864917 9.9354839 3.0864917s9.9354841-1.3717741 9.9354841-3.0864917h-5.532258z" fill="#042340"/></g></g><g fill-rule="nonzero"><path d="m137 76h-17l2.897641-6.1935663 2.511425-5.8064337h6.181868l2.511425 5.8064337z" fill="#3d7c94"/><path d="m147.329645 76h-38.481495c-2.116501 0-3.84815 1.6941092-3.84815 3.7647271v12.2352729h45.985368v-12.2352729c.192426-2.0706179-1.539223-3.7647271-3.655723-3.7647271z" fill="#042240"/><path d="m134 69.7674212c-1.517185.7442523-3.03437 1.4883265-4.551737 2.0465157l-.948172.1860631-.948354-.3721261c-1.517185-.5581893-3.03437-1.3022635-4.551737-2.0465158l2.465539-5.5813581h5.879251z" fill="#275d72"/><path d="m82 11v7.8790193c0 19.2170753 11.88337 35.7436865 28.558315 42.6619439 5.36663 2.3060858 11.308315 3.4590368 17.441685 3.4590368s12.075055-1.152951 17.441685-3.4590368c16.674945-6.9180735 28.558315-23.4448686 28.558315-42.66176v-7.8792032zm85 8.1940483c0 9.3133913-3.27246 17.8507749-8.854969 24.6417236-7.122478 8.537198-17.710121 14.1642281-29.645031 14.1642281s-22.522553-5.4327961-29.6450313-14.1642281c-5.389989-6.597086-8.8549687-15.3283323-8.8549687-24.6417236v-.1940483h76.807481v.1940483z" fill="#042240"/><path d="m157.714253 0h-59.4285062c-1.3332763 0-2.2857468 1.19990047-2.2857468 2.39999234 0 1.39991579.9522882 2.60000766 2.2857468 2.60000766h59.4285062c1.333277 0 2.285747-1.19990047 2.285747-2.39999234-.000182-1.40010719-.95247-2.60000766-2.285747-2.60000766z" fill="#103d6a"/><path d="m158 4v20.6328287c0 19.1045049-11.923143 36.4896227-30 43.3671713-18.076857-7.068612-30-24.2626664-30-43.5582346v-20.4417654z" fill="#103d6a"/><path d="m128.910685 19.5911858 2.613975 5.5431961c.14766.3131179.43307.5301304.763212.5803116l5.844196.8890332c.381892.0580474.699159.3380462.818347.7222181s.019615.8058557-.256834 1.0876752l-4.229592 4.3146752c-.239201.2440068-.347652.5951642-.291906.9388954l.998358 6.0927416c.065151.3979959-.091202.8001963-.403326 1.0375101-.312123.2373137-.725892.268589-1.067352.0806772l-5.22795-2.8771574c-.295447-.1622369-.648179-.1622369-.943626 0l-5.22795 2.8771574c-.34146.1879118-.755229.1566365-1.067352-.0806772-.312124-.2373138-.468477-.6395142-.403326-1.0375101l.998358-6.0927416c.056423-.3441897-.052764-.6953816-.291906-.9388954l-4.229592-4.3146752c-.276449-.2818195-.376022-.7035033-.256834-1.0876752s.436455-.6641707.818347-.7222181l5.844196-.8890332c.330142-.0501812.615552-.2671937.763212-.5803116l2.613975-5.5431961c.375018-.7882477 1.449393-.7882477 1.82137 0z" fill="#fff"/><path d="m98 5h60v3h-60z" fill="#042240"/></g></g></g></g></svg>