<svg xmlns="http://www.w3.org/2000/svg" width="256" height="250" viewBox="0 0 256 250">
  <g fill="none" fill-rule="evenodd">
    <rect width="256" height="250" fill="#A5DDF1"/>
    <path fill="#04223F" d="M0,125 L0.508544154,125 C1.93246779,125 3.25468259,125.223614 4.57689739,125.447227 C8.13670647,126.118068 11.5948067,127.45975 14.6460716,129.472272 C16.0699953,130.366726 17.3922101,131.372987 18.6127161,132.491055 C19.4263867,133.273703 20.2400573,134.056351 20.9520192,134.950805 C23.6981576,137.969589 25.834043,141.435599 27.3596755,145.460644 C28.0716373,147.249553 28.5801815,149.038462 28.9870168,150.939177 C29.8006875,154.516995 29.9023963,158.206619 29.5972698,161.784436 C29.495561,162.902504 29.2921433,164.132379 29.0887256,165.250447 C28.7835991,166.703936 28.3767638,168.269231 27.8682197,169.722719 C27.8682197,169.834526 27.7665108,169.946333 27.7665108,170.05814 C27.7665108,170.169946 27.664802,170.39356 27.664802,170.505367 C24.8169547,178.220036 19.5280955,184.816637 12.5101862,188.506261 C15.66316,190.854204 18.2058807,194.096601 19.833222,198.009839 C20.1383485,198.68068 20.443475,199.463327 20.6468927,200.245975 C21.1554368,199.910555 21.663981,199.575134 22.1725251,199.239714 C23.9015753,198.233453 25.7323342,197.562612 27.7665108,197.003578 C29.2921433,196.556351 30.7160669,196.444544 32.2416994,196.332737 C37.4288498,196.109123 42.3108737,197.786225 46.4809357,200.805009 C50.6509978,203.823792 53.9056804,208.296064 55.7364393,213.662791 C56.0415658,213.774597 56.2449835,213.998211 56.4484011,214.110018 C56.8552365,214.333631 57.2620718,214.669052 57.5671983,215.004472 C57.770616,215.116279 57.9740336,215.339893 58.1774513,215.563506 C59.2962484,216.681574 60.2116279,218.023256 60.9235897,219.476744 C61.2287162,220.035778 61.4321339,220.706619 61.6355515,221.265653 C61.8389692,221.936494 62.0423868,222.607335 62.1440957,223.278175 C62.2458045,223.837209 62.2458045,224.284436 62.3475133,224.84347 C62.4492222,225.067084 62.4492222,225.402504 62.4492222,225.626118 C63.8731458,224.731664 65.5004871,224.060823 67.1278284,223.501789 C67.6363725,223.389982 68.1449167,223.166369 68.6534609,223.054562 C69.6705492,222.719141 70.6876375,222.495528 71.7047258,222.383721 C73.0269406,222.160107 74.4498471,222.048301 75.9764967,222.048301 L77.5021291,222.048301 C79.0287787,222.048301 80.4516852,222.271914 81.8756089,222.607335 C83.5029502,221.153846 85.3337091,219.700358 87.2661769,218.58229 C89.9106065,217.016995 92.9618714,215.78712 96.216554,215.004472 C98.1490218,214.557245 100.182181,214.333631 102.217375,214.221825 L103.946425,214.221825 C108.727757,214.221825 113.201929,215.228086 117.168573,216.905188 C122.559141,219.253131 126.932621,222.830948 129.780468,227.30322 C130.085595,227.862254 130.390721,228.421288 130.695848,228.980322 C131.204392,229.874776 131.611227,230.657424 131.916354,231.551878 C132.119771,232.110912 132.323189,232.781753 132.526607,233.340787 C132.933442,233.117174 133.238568,233.005367 133.645404,232.89356 C133.721685,232.851073 133.812206,232.825358 133.906795,232.802996 L134.095974,232.76051 C134.190563,232.738148 134.281084,232.711315 134.357366,232.669946 C134.967619,232.55814 135.577872,232.446333 136.086416,232.446333 C139.137681,232.334526 142.087237,234.011628 143.816287,236.806798 C144.528249,236.694991 145.138502,236.583184 145.850464,236.583184 C153.173499,236.135957 160.0897,240.049195 164.158053,246.533989 C164.861878,247.617397 165.480268,248.773479 166,250 L0,250 L0,125 L0,125 Z"/>
    <path fill="#04223F" fill-rule="nonzero" d="M68.2222222 181.070796C66.7777778 181.070796 65.5555556 182.106195 65.5555556 183.371681L63.4444444 183.371681 63.4444444 179C59.6666667 179 56.6666667 180.725664 56.6666667 182.911504 56.6666667 183.026549 56.6666667 183.141593 56.6666667 183.256637L53 183.256637C53 184.176991 54.7777778 184.982301 57.4444444 185.442478 57 186.017699 56.6666667 186.707965 56.6666667 187.513274 56.6666667 190.044248 59.6666667 192 63.4444444 192L63.4444444 186.823009 63.4444444 185.442478C66.2222222 185.097345 68.2222222 184.292035 68.2222222 183.256637L71 183.256637C70.8888889 182.106195 69.6666667 181.070796 68.2222222 181.070796M33.0255235 103.89313C31.5721779 106.526718 32.3547486 109.961832 34.9260523 111.793893L35.3732355 111.10687C36.3793978 113.396947 38.5035183 115 41.1866178 115L41.1866178 104.007634C43.0871466 103.664122 44.4286963 102.977099 44.4286963 102.175573L47 102.175573C47 100.916031 45.8820419 100 44.4286963 100 42.9753508 100 41.8573926 101.030534 41.8573926 102.175573L40.8512303 102.175573C38.8389057 100.801527 36.4911936 100.916031 34.7024607 102.175573L30.0070365 102.175573C29.8952407 102.862595 31.1249947 103.549618 33.0255235 103.89313M89.4444444 166C87.5555556 166 86 167.384615 86 169L93 169C93 167.384615 91.4444444 166 89.4444444 166"/>
    <path fill="#04223F" fill-rule="nonzero" d="M91,155.995969 C86.8225806,153.823994 81.7419355,155.310082 79.7096774,159.425404 C79.1451613,160.454235 78.9193548,161.59738 78.8064516,162.62621 L74.4032258,158.396574 C71.5806452,161.483065 71.4677419,166.16996 74.2903226,168.799194 L74.4032258,168.913508 L70,168.913508 C70,170.628226 74.4032258,172 79.9354839,172 C85.4677419,172 89.8709677,170.628226 89.8709677,168.913508 L84.3387097,168.913508 L91,155.995969 L91,155.995969 Z"/>
    <g fill-rule="nonzero" transform="translate(82 90)">
      <polygon fill="#275D72" points="54 76 37 76 39.898 69.806 42.409 64 48.591 64 51.102 69.806"/>
      <path fill="#04223F" d="M65.3296446,76 L26.8481495,76 C24.7316489,76 23,77.6941092 23,79.7647271 L23,92 L68.9853682,92 L68.9853682,79.7647271 C69.1777941,77.6941092 67.4461452,76 65.3296446,76 Z"/>
      <path fill="#275D72" d="M51,69.7674212 C49.4828149,70.5116735 47.9656299,71.2557477 46.4482633,71.8139369 L45.5000908,72 L44.5517367,71.6278739 C43.0345516,71.0696846 41.5173666,70.3256104 40,69.5813581 L42.4655391,64 L48.34479,64 L51,69.7674212 Z"/>
      <path fill="#04223F" d="M0 11L0 18.8790193C0 38.0960946 11.88337 54.6227058 28.558315 61.5409632 33.924945 63.847049 39.86663 65 46 65 52.13337 65 58.075055 63.847049 63.441685 61.5409632 80.11663 54.6228897 92 38.0960946 92 18.8792032L92 11 0 11zM85 19.1940483C85 28.5074396 81.7275396 37.0448232 76.1450313 43.8357719 69.0225525 52.3729699 58.4349097 58 46.5 58 34.5650903 58 23.9774475 52.5672039 16.8549687 43.8357719 11.4649797 37.2386859 8 28.5074396 8 19.1940483L8 19 84.8074807 19 84.8074807 19.1940483 85 19.1940483zM75.7142532 0L16.2857468 0C14.9524705 0 14 1.19990047 14 2.39999234 14 3.79990813 14.9522882 5 16.2857468 5L75.7142532 5C77.0475295 5 78 3.80009953 78 2.60000766 78 1.19990047 77.0475295 0 75.7142532 0z"/>
      <path fill="#04223F" d="M76,5 L76,25.6328287 C76,44.7373336 64.076857,62.1224514 46,69 C27.923143,61.931388 16,44.7373336 16,25.4417654 L16,5 L76,5 Z"/>
      <path fill="#FFF" d="M56.9557933,26.1823873 L50.3465818,25.5246071 C49.9299433,25.4847416 49.5699298,25.2056833 49.3996762,24.7870959 L47.0324123,18.7474775 C46.6536501,17.7508408 45.3088548,17.7508408 44.9300926,18.7474775 L42.5817668,24.7870959 C42.4302619,25.2056833 42.0514996,25.4847416 41.6348612,25.5246071 L35.0254603,26.1823873 C34.0406785,26.282051 33.6429782,27.5776787 34.3815645,28.2753244 L39.3622878,32.8797859 C39.6842357,33.178777 39.8168025,33.6172971 39.7221119,34.0558172 L38.2260012,40.5138237 C37.9987438,41.5305925 39.0403399,42.367568 39.9114931,41.8295835 L45.4224835,38.4208867 C45.7823076,38.2016266 46.2178841,38.2016266 46.5777083,38.4208867 L52.088888,41.8295835 C52.9600412,42.367568 54.0016373,41.5505252 53.7741906,40.5138237 L52.2970179,34.0558172 C52.2023273,33.6172971 52.3348941,33.178777 52.656842,32.8797859 L57.6375653,28.2753244 C58.3572135,27.5776787 57.9405751,26.282051 56.9557933,26.1823873 Z"/>
      <rect width="60" height="3" x="16" y="5" fill="#04223F"/>
    </g>
    <path fill="#000" fill-rule="nonzero" d="M35.8920898 33.4863281C35.8920898 38.0084862 33.8519084 40.2695312 29.7714844 40.2695312 25.8632617 40.2695312 23.9091797 38.0945856 23.9091797 33.7446289L23.9091797 23.8955078 25.7958984 23.8955078 25.7958984 33.6210938C25.7958984 36.9228681 27.1884626 38.5737305 29.9736328 38.5737305 32.6614718 38.5737305 34.0053711 36.9790199 34.0053711 33.7895508L34.0053711 23.8955078 35.8920898 23.8955078 35.8920898 33.4863281zM41.5522461 38.3378906L41.5073242 38.3378906 41.5073242 45.2895508 39.6655273 45.2895508 39.6655273 28.5 41.5073242 28.5 41.5073242 30.5214844 41.5522461 30.5214844C42.4581751 28.994133 43.7833572 28.2304688 45.527832 28.2304688 47.0102613 28.2304688 48.166988 28.7451934 48.9980469 29.7746582 49.8291057 30.804123 50.2446289 32.1835851 50.2446289 33.9130859 50.2446289 35.8372492 49.7766974 37.3776798 48.8408203 38.5344238 47.9049432 39.6911679 46.6246826 40.2695312 45 40.2695312 43.5100837 40.2695312 42.3608439 39.6256575 41.5522461 38.3378906zM41.5073242 33.699707L41.5073242 35.3056641C41.5073242 36.2565152 41.816159 37.0632291 42.4338379 37.7258301 43.0515168 38.388431 43.83577 38.7197266 44.7866211 38.7197266 45.9021866 38.7197266 46.7762826 38.292973 47.4089355 37.4394531 48.0415884 36.5859332 48.3579102 35.3992589 48.3579102 33.8793945 48.3579102 32.5991147 48.0621774 31.5958695 47.4707031 30.8696289 46.8792288 30.1433883 46.0781301 29.7802734 45.0673828 29.7802734 43.9967394 29.7802734 43.1357454 30.1527469 42.484375 30.8977051 41.8330046 31.6426632 41.5073242 32.5766545 41.5073242 33.699707zM63.0024414 39.0791016C63.0024414 43.3017789 60.9809772 45.4130859 56.9379883 45.4130859 55.5154551 45.4130859 54.272629 45.1435574 53.2094727 44.6044922L53.2094727 42.7626953C54.5047265 43.4814489 55.7400657 43.8408203 56.9155273 43.8408203 59.7456196 43.8408203 61.1606445 42.3359525 61.1606445 39.3261719L61.1606445 38.0683594 61.1157227 38.0683594C60.2397417 39.5358146 58.9220466 40.2695312 57.1625977 40.2695312 55.7325775 40.2695312 54.5814659 39.75855 53.7092285 38.7365723 52.8369911 37.7145945 52.4008789 36.3426193 52.4008789 34.6206055 52.4008789 32.6664941 52.8706822 31.1129615 53.8103027 29.9599609 54.7499233 28.8069604 56.0357991 28.2304688 57.6679688 28.2304688 59.2177812 28.2304688 60.367021 28.8518818 61.1157227 30.0947266L61.1606445 30.0947266 61.1606445 28.5 63.0024414 28.5 63.0024414 39.0791016zM61.1606445 34.800293L61.1606445 33.1044922C61.1606445 32.1910762 60.8518097 31.4086947 60.2341309 30.7573242 59.616452 30.1059538 58.8471726 29.7802734 57.9262695 29.7802734 56.788243 29.7802734 55.8973014 30.1939249 55.253418 31.0212402 54.6095345 31.8485556 54.2875977 33.007154 54.2875977 34.4970703 54.2875977 35.7773502 54.5964325 36.8011843 55.2141113 37.5686035 55.8317902 38.3360227 56.6497345 38.7197266 57.6679688 38.7197266 58.701177 38.7197266 59.541582 38.3528683 60.189209 37.6191406 60.8368359 36.885413 61.1606445 35.9458065 61.1606445 34.800293zM72.7280273 30.3642578C72.4060856 30.1171863 71.9418976 29.9936523 71.3354492 29.9936523 70.5493125 29.9936523 69.8923366 30.3642541 69.364502 31.1054688 68.8366673 31.8466834 68.5727539 32.8574155 68.5727539 34.1376953L68.5727539 40 66.730957 40 66.730957 28.5 68.5727539 28.5 68.5727539 30.8696289 68.6176758 30.8696289C68.8797214 30.0610311 69.2802707 29.4302594 69.8193359 28.9772949 70.3584011 28.5243304 70.9610969 28.2978516 71.6274414 28.2978516 72.1066105 28.2978516 72.4734688 28.3502599 72.7280273 28.4550781L72.7280273 30.3642578zM82.9589844 40L81.1171875 40 81.1171875 38.203125 81.0722656 38.203125C80.2711548 39.5807361 79.0919674 40.2695312 77.534668 40.2695312 76.3891544 40.2695312 75.4925976 39.9663116 74.8449707 39.3598633 74.1973438 38.7534149 73.8735352 37.9485727 73.8735352 36.9453125 73.8735352 34.7965387 75.138822 33.5462257 77.6694336 33.1943359L81.1171875 32.7114258C81.1171875 30.7573144 80.3273191 29.7802734 78.7475586 29.7802734 77.3624605 29.7802734 76.1121475 30.2519484 74.996582 31.1953125L74.996582 29.3085938C76.1271215 28.5898402 77.4298429 28.2304688 78.9047852 28.2304688 81.6075981 28.2304688 82.9589844 29.6604675 82.9589844 32.5205078L82.9589844 40zM81.1171875 34.1826172L78.3432617 34.5644531C77.4897418 34.6842454 76.8458681 34.8957504 76.4116211 35.1989746 75.9773741 35.5021988 75.7602539 36.0393842 75.7602539 36.8105469 75.7602539 37.3720731 75.9605286 37.830646 76.361084 38.1862793 76.7616394 38.5419126 77.2950813 38.7197266 77.9614258 38.7197266 78.8748418 38.7197266 79.6291474 38.3996614 80.2243652 37.7595215 80.8195831 37.1193816 81.1171875 36.3089242 81.1171875 35.328125L81.1171875 34.1826172zM96.2446289 40L94.402832 40 94.402832 38.0458984 94.3579102 38.0458984C93.5043903 39.5283277 92.1866951 40.2695312 90.4047852 40.2695312 88.959791 40.2695312 87.804936 39.7548066 86.9401855 38.7253418 86.0754351 37.695877 85.6430664 36.2939542 85.6430664 34.5195312 85.6430664 32.617829 86.1222283 31.094244 87.0805664 29.9487305 88.0389045 28.8032169 89.3154217 28.2304688 90.9101562 28.2304688 92.4899168 28.2304688 93.6391566 28.8518818 94.3579102 30.0947266L94.402832 30.0947266 94.402832 22.9746094 96.2446289 22.9746094 96.2446289 40zM94.402832 34.800293L94.402832 33.1044922C94.402832 32.1761021 94.095869 31.3899772 93.4819336 30.7460938 92.8679982 30.1022103 92.0893602 29.7802734 91.1459961 29.7802734 90.0229436 29.7802734 89.1394889 30.1920532 88.4956055 31.015625 87.851722 31.8391968 87.5297852 32.9772063 87.5297852 34.4296875 87.5297852 35.7548894 87.83862 36.8011843 88.4562988 37.5686035 89.0739777 38.3360227 89.9031523 38.7197266 90.9438477 38.7197266 91.9695689 38.7197266 92.802487 38.3491248 93.442627 37.6079102 94.0827669 36.8666955 94.402832 35.9308325 94.402832 34.800293zM109.21582 34.7104492L101.096191 34.7104492C101.126139 35.9907291 101.470537 36.9790004 102.129395 37.675293 102.788252 38.3715855 103.694167 38.7197266 104.847168 38.7197266 106.142422 38.7197266 107.33284 38.292973 108.418457 37.4394531L108.418457 39.1689453C107.40771 39.9026729 106.071297 40.2695312 104.40918 40.2695312 102.784497 40.2695312 101.50798 39.7473197 100.57959 38.7028809 99.6511998 37.658442 99.1870117 36.1891371 99.1870117 34.2949219 99.1870117 32.5055249 99.6942495 31.0474503 100.70874 29.9206543 101.723231 28.7938583 102.982903 28.2304688 104.487793 28.2304688 105.992683 28.2304688 107.156897 28.7171175 107.980469 29.6904297 108.804041 30.6637418 109.21582 32.0151281 109.21582 33.7446289L109.21582 34.7104492zM107.329102 33.1494141C107.321615 32.0862577 107.065188 31.2589548 106.559814 30.6674805 106.054441 30.0760062 105.352544 29.7802734 104.454102 29.7802734 103.585608 29.7802734 102.848148 30.09098 102.241699 30.7124023 101.635251 31.3338247 101.260906 32.1461538 101.118652 33.1494141L107.329102 33.1494141zM123.658203 39.8876953C123.223956 40.1272798 122.651208 40.2470703 121.939941 40.2470703 119.925934 40.2470703 118.918945 39.1240347 118.918945 36.8779297L118.918945 30.0722656 116.942383 30.0722656 116.942383 28.5 118.918945 28.5 118.918945 25.6923828 120.760742 25.097168 120.760742 28.5 123.658203 28.5 123.658203 30.0722656 120.760742 30.0722656 120.760742 36.5522461C120.760742 37.3234088 120.891763 37.8736963 121.153809 38.203125 121.415854 38.5325537 121.850095 38.6972656 122.456543 38.6972656 122.920738 38.6972656 123.321287 38.5699883 123.658203 38.3154297L123.658203 39.8876953zM130.924316 40.2695312C129.224764 40.2695312 127.867762 39.7323459 126.853271 38.657959 125.838781 37.5835721 125.331543 36.1591886 125.331543 34.3847656 125.331543 32.4531153 125.85937 30.9445041 126.915039 29.8588867 127.970708 28.7732693 129.396964 28.2304688 131.193848 28.2304688 132.908374 28.2304688 134.246659 28.7582955 135.20874 29.8139648 136.170822 30.8696342 136.651855 32.333324 136.651855 34.2050781 136.651855 36.0393972 136.133387 37.5087022 135.096436 38.6130371 134.059484 39.7173721 132.668791 40.2695312 130.924316 40.2695312zM131.059082 29.7802734C129.876133 29.7802734 128.94027 30.1826945 128.251465 30.9875488 127.562659 31.7924031 127.218262 32.9023367 127.218262 34.3173828 127.218262 35.6800198 127.566403 36.7543906 128.262695 37.5405273 128.958988 38.3266641 129.891107 38.7197266 131.059082 38.7197266 132.249518 38.7197266 133.164792 38.334151 133.804932 37.5629883 134.445072 36.7918256 134.765137 35.6949941 134.765137 34.2724609 134.765137 32.8349537 134.445072 31.7268919 133.804932 30.9482422 133.164792 30.1695925 132.249518 29.7802734 131.059082 29.7802734zM149.521973 34.4521484L149.521973 40 145.894531 40 145.894531 23.8955078 151.577148 23.8955078C155.635111 23.8955078 157.664062 25.6062654 157.664062 29.027832 157.664062 30.6450276 157.081956 31.9533641 155.917725 32.9528809 154.753494 33.9523976 153.198089 34.4521484 151.251465 34.4521484L149.521973 34.4521484zM149.521973 26.6806641L149.521973 31.7006836 150.948242 31.7006836C152.879892 31.7006836 153.845703 30.8546634 153.845703 29.1625977 153.845703 27.507967 152.879892 26.6806641 150.948242 26.6806641L149.521973 26.6806641zM173.532715 40L169.366211 40 166.861816 35.855957C166.674641 35.5415023 166.494955 35.2607434 166.322754 35.0136719 166.150553 34.7666003 165.976482 34.5550953 165.800537 34.3791504 165.624592 34.2032055 165.441163 34.0684412 165.250244 33.9748535 165.059325 33.8812658 164.851564 33.8344727 164.626953 33.8344727L163.649902 33.8344727 163.649902 40 160.022461 40 160.022461 23.8955078 165.772461 23.8955078C169.680684 23.8955078 171.634766 25.3554542 171.634766 28.2753906 171.634766 28.8369169 171.548666 29.355385 171.376465 29.8308105 171.204263 30.3062361 170.960939 30.7348614 170.646484 31.1166992 170.33203 31.4985371 169.952069 31.8279609 169.506592 32.1049805 169.061114 32.3820001 168.565107 32.5991203 168.018555 32.7563477L168.018555 32.8012695C168.258139 32.8761397 168.490233 32.9978019 168.714844 33.1662598 168.939454 33.3347176 169.156574 33.5312489 169.366211 33.7558594 169.575847 33.9804699 169.776122 34.2219225 169.967041 34.4802246 170.15796 34.7385267 170.33203 34.9912097 170.489258 35.2382812L173.532715 40zM163.649902 26.6132812L163.649902 31.0942383 165.222168 31.0942383C166.000818 31.0942383 166.625974 30.8696312 167.097656 30.4204102 167.576825 29.9637021 167.816406 29.3984409 167.816406 28.7246094 167.816406 27.3170503 166.97413 26.6132812 165.289551 26.6132812L163.649902 26.6132812zM181.843262 40.2807617C179.537261 40.2807617 177.658048 39.5301996 176.205566 38.0290527 174.753085 36.5279059 174.026855 34.5719522 174.026855 32.1611328 174.026855 29.6155472 174.764316 27.5566485 176.239258 25.984375 177.7142 24.4121015 179.668282 23.6259766 182.101562 23.6259766 184.400077 23.6259766 186.258701 24.3784104 187.67749 25.8833008 189.09628 27.3881911 189.805664 29.3722208 189.805664 31.8354492 189.805664 34.3660608 189.070076 36.4062423 187.598877 37.9560547 186.127678 39.5058671 184.209159 40.2807617 181.843262 40.2807617zM182.000488 26.7480469C180.727695 26.7480469 179.716963 27.225337 178.968262 28.1799316 178.21956 29.1345263 177.845215 30.3979414 177.845215 31.9702148 177.845215 33.5649494 178.21956 34.8264928 178.968262 35.7548828 179.716963 36.6832729 180.697748 37.1474609 181.910645 37.1474609 183.160976 37.1474609 184.152991 36.696375 184.886719 35.7941895 185.620446 34.892004 185.987305 33.6398192 185.987305 32.0375977 185.987305 30.367993 185.631677 29.0690151 184.92041 28.140625 184.209144 27.2122349 183.235846 26.7480469 182.000488 26.7480469zM25.2597656 62.5595703L25.2597656 66 24.1933594 66 24.1933594 56.8974609 26.6943359 56.8974609C27.6676481 56.8974609 28.4219537 57.1344377 28.9572754 57.6083984 29.4925971 58.0823591 29.7602539 58.7509722 29.7602539 59.6142578 29.7602539 60.4775434 29.462975 61.184242 28.8684082 61.734375 28.2738414 62.284508 27.4708709 62.5595703 26.4594727 62.5595703L25.2597656 62.5595703zM25.2597656 57.8623047L25.2597656 61.5947266 26.3769531 61.5947266C27.1132849 61.5947266 27.6750469 61.4265154 28.0622559 61.0900879 28.4494648 60.7536604 28.6430664 60.2786489 28.6430664 59.6650391 28.6430664 58.4632101 27.932136 57.8623047 26.5102539 57.8623047L25.2597656 57.8623047zM36.390332 66L35.3493164 66 35.3493164 64.9716797 35.3239258 64.9716797C34.892283 65.758793 34.2236699 66.1523438 33.3180664 66.1523438 31.7692305 66.1523438 30.9948242 65.2298269 30.9948242 63.3847656L30.9948242 59.5 32.0294922 59.5 32.0294922 63.2197266C32.0294922 64.5908272 32.5542265 65.2763672 33.6037109 65.2763672 34.111526 65.2763672 34.5294092 65.0891132 34.857373 64.7145996 35.1853369 64.340086 35.3493164 63.8502634 35.3493164 63.2451172L35.3493164 59.5 36.390332 59.5 36.390332 66zM37.8978516 65.7651367L37.8978516 64.6479492C38.4649117 65.0668966 39.0890916 65.2763672 39.7704102 65.2763672 40.6844772 65.2763672 41.1415039 64.9716827 41.1415039 64.3623047 41.1415039 64.1888012 41.1023604 64.0417486 41.0240723 63.9211426 40.9457841 63.8005365 40.8399909 63.6936854 40.7066894 63.6005859 40.573388 63.5074865 40.416814 63.4239099 40.2369629 63.3498535 40.0571117 63.2757972 39.8635101 63.1985681 39.6561523 63.1181641 39.3683905 63.0039057 39.1155447 62.8885911 38.8976074 62.7722168 38.6796701 62.6558425 38.4977058 62.5246589 38.351709 62.3786621 38.2057122 62.2326653 38.0956872 62.0665699 38.0216309 61.8803711 37.9475745 61.6941722 37.9105469 61.4762382 37.9105469 61.2265625 37.9105469 60.9218735 37.9803704 60.6521008 38.1200195 60.4172363 38.2596687 60.1823719 38.4458647 59.9855965 38.6786133 59.8269043 38.9113618 59.6682121 39.1769028 59.5486658 39.4752441 59.4682617 39.7735855 59.3878577 40.0814437 59.3476562 40.3988281 59.3476562 40.9616565 59.3476562 41.4652321 59.444986 41.9095703 59.6396484L41.9095703 60.6933594C41.4313778 60.3802068 40.8812531 60.2236328 40.2591797 60.2236328 40.0645172 60.2236328 39.8889005 60.2458494 39.7323242 60.2902832 39.5757479 60.334717 39.4413905 60.397135 39.329248 60.4775391 39.2171056 60.5579431 39.1303551 60.6542149 39.0689941 60.7663574 39.0076332 60.8784999 38.9769531 61.002278 38.9769531 61.1376953 38.9769531 61.306967 39.0076332 61.4487299 39.0689941 61.5629883 39.1303551 61.6772467 39.2202793 61.7788081 39.3387695 61.8676758 39.4572597 61.9565434 39.6011385 62.0369463 39.7704102 62.1088867 39.9396818 62.1808272 40.1322255 62.2591142 40.3480469 62.34375 40.6358087 62.4537766 40.8939442 62.5669753 41.1224609 62.6833496 41.3509777 62.7997239 41.5456372 62.9309075 41.7064453 63.0769043 41.8672534 63.2229011 41.9910315 63.3911123 42.0777832 63.581543 42.1645349 63.7719736 42.2079102 63.9983711 42.2079102 64.2607422 42.2079102 64.5823584 42.1370287 64.8616525 41.9952637 65.0986328 41.8534986 65.3356132 41.6641288 65.5323885 41.4271484 65.6889648 41.1901681 65.8455411 40.9172216 65.9619137 40.6083008 66.0380859 40.29938 66.1142582 39.9756527 66.1523438 39.6371094 66.1523438 38.9684862 66.1523438 38.3887394 66.023276 37.8978516 65.7651367zM49.0030273 66L47.9620117 66 47.9620117 62.2548828C47.9620117 60.9007094 47.458436 60.2236328 46.4512695 60.2236328 45.9434545 60.2236328 45.5160499 60.4193503 45.169043 60.810791 44.822036 61.2022318 44.6485351 61.7047495 44.6485351 62.3183594L44.6485351 66 43.6075195 66 43.6075195 56.3769531 44.6485351 56.3769531 44.6485351 60.5791016 44.6739258 60.5791016C45.1732772 59.7581339 45.8842076 59.3476562 46.8067383 59.3476562 48.2709383 59.3476562 49.0030273 60.2299716 49.0030273 61.9946289L49.0030273 66zM58.7783203 66L57.7373047 66 57.7373047 64.984375 57.711914 64.984375C57.2591123 65.7630247 56.5926151 66.1523438 55.7124023 66.1523438 55.0649382 66.1523438 54.5581887 65.9809587 54.1921387 65.6381836 53.8260886 65.2954084 53.6430664 64.8404976 53.6430664 64.2734375 53.6430664 63.0589132 54.3582285 62.3522145 55.7885742 62.1533203L57.7373047 61.8803711C57.7373047 60.7758734 57.2908573 60.2236328 56.3979492 60.2236328 55.6150677 60.2236328 54.908369 60.4902317 54.277832 61.0234375L54.277832 59.9570312C54.9168326 59.5507792 55.6531534 59.3476562 56.4868164 59.3476562 58.0144933 59.3476562 58.7783203 60.1559164 58.7783203 61.7724609L58.7783203 66zM57.7373047 62.7119141L56.1694336 62.9277344C55.6870093 62.995443 55.3230806 63.1149894 55.0776367 63.286377 54.8321928 63.4577645 54.7094726 63.761391 54.7094726 64.1972656 54.7094726 64.51465 54.8226714 64.7738434 55.0490723 64.9748535 55.2754731 65.1758636 55.5769838 65.2763672 55.9536133 65.2763672 56.4698919 65.2763672 56.8962385 65.0954608 57.232666 64.7336426 57.5690935 64.3718244 57.7373047 63.9137398 57.7373047 63.359375L57.7373047 62.7119141zM65.9352539 66L64.8942383 66 64.8942383 62.2929688C64.8942383 60.9134046 64.3906626 60.2236328 63.3834961 60.2236328 62.8629857 60.2236328 62.4324073 60.4193503 62.091748 60.810791 61.7510888 61.2022318 61.5807617 61.6962861 61.5807617 62.2929688L61.5807617 66 60.5397461 66 60.5397461 59.5 61.5807617 59.5 61.5807617 60.5791016 61.6061523 60.5791016C62.0970402 59.7581339 62.8079706 59.3476562 63.7389648 59.3476562 64.4499059 59.3476562 64.993683 59.5772275 65.3703125 60.036377 65.746942 60.4955264 65.9352539 61.1588498 65.9352539 62.0263672L65.9352539 66zM73.2445312 66L72.2035156 66 72.2035156 64.8955078 72.178125 64.8955078C71.6957007 65.7334026 70.9509165 66.1523438 69.94375 66.1523438 69.1270141 66.1523438 68.47427 65.8614124 67.985498 65.279541 67.4967261 64.6976696 67.2523437 63.9052785 67.2523437 62.9023438 67.2523437 61.8274686 67.5231744 60.9663118 68.0648437 60.3188477 68.6065131 59.6713835 69.3280228 59.3476562 70.2293945 59.3476562 71.1223026 59.3476562 71.7718729 59.6988897 72.178125 60.4013672L72.2035156 60.4013672 72.2035156 56.3769531 73.2445312 56.3769531 73.2445312 66zM72.2035156 63.0610352L72.2035156 62.1025391C72.2035156 61.5777969 72.0300147 61.1334654 71.6830078 60.7695312 71.3360008 60.4055971 70.8959011 60.2236328 70.3626953 60.2236328 69.7279265 60.2236328 69.2285825 60.4563779 68.8646484 60.921875 68.5007143 61.3873721 68.31875 62.0305949 68.31875 62.8515625 68.31875 63.6005897 68.4933088 64.1919737 68.8424316 64.6257324 69.1915545 65.0594911 69.6602184 65.2763672 70.2484375 65.2763672 70.828193 65.2763672 71.2989728 65.0668966 71.660791 64.6479492 72.0226092 64.2290018 72.2035156 63.7000357 72.2035156 63.0610352zM79.5793945 65.0605469L79.5540039 65.0605469 79.5540039 68.9897461 78.5129883 68.9897461 78.5129883 59.5 79.5540039 59.5 79.5540039 60.6425781 79.5793945 60.6425781C80.0914413 59.7792926 80.8404573 59.3476562 81.8264648 59.3476562 82.6643596 59.3476562 83.3181617 59.6385876 83.7878906 60.220459 84.2576195 60.8023304 84.4924804 61.5820264 84.4924804 62.5595703 84.4924804 63.6471409 84.2279974 64.517819 83.6990234 65.1716309 83.1700494 65.8254427 82.4464238 66.1523438 81.528125 66.1523438 80.6859984 66.1523438 80.036428 65.7884151 79.5793945 65.0605469zM79.5540039 62.4389648L79.5540039 63.3466797C79.5540039 63.8841173 79.7285627 64.340086 80.0776855 64.7145996 80.4268084 65.0891132 80.8700819 65.2763672 81.4075195 65.2763672 82.0380565 65.2763672 82.5321108 65.0351587 82.8896972 64.5527344 83.2472837 64.0703101 83.4260742 63.3995811 83.4260742 62.5405273 83.4260742 61.8168909 83.2589209 61.2498393 82.9246093 60.8393555 82.5902978 60.4288716 82.1375028 60.2236328 81.5662109 60.2236328 80.9610647 60.2236328 80.4744159 60.4341613 80.10625 60.8552246 79.7380841 61.2762879 79.5540039 61.804196 79.5540039 62.4389648zM91.2114258 66L90.1704101 66 90.1704101 64.9716797 90.1450195 64.9716797C89.7133767 65.758793 89.0447636 66.1523438 88.1391601 66.1523438 86.5903243 66.1523438 85.8159179 65.2298269 85.8159179 63.3847656L85.8159179 59.5 86.8505859 59.5 86.8505859 63.2197266C86.8505859 64.5908272 87.3753202 65.2763672 88.4248047 65.2763672 88.9326197 65.2763672 89.3505029 65.0891132 89.6784668 64.7145996 90.0064306 64.340086 90.1704101 63.8502634 90.1704101 63.2451172L90.1704101 59.5 91.2114258 59.5 91.2114258 66zM94.1535156 66L93.1125 66 93.1125 56.3769531 94.1535156 56.3769531 94.1535156 66zM97.1019531 66L96.0609375 66 96.0609375 56.3769531 97.1019531 56.3769531 97.1019531 66zM107.54375 59.5L104.554004 67.0410156C104.020798 68.3867255 103.271782 69.0595703 102.306934 69.0595703 102.036099 69.0595703 101.809701 69.0320641 101.627734 68.9770508L101.627734 68.0439453C101.852019 68.1201176 102.057258 68.1582031 102.243457 68.1582031 102.768199 68.1582031 103.16175 67.8450552 103.424121 67.21875L103.944629 65.9873047 101.405566 59.5 102.56084 59.5 104.319141 64.5019531C104.3403 64.56543 104.384733 64.7304674 104.452441 64.9970703L104.490527 64.9970703C104.511686 64.8955073 104.554004 64.7347016 104.61748 64.5146484L106.464648 59.5 107.54375 59.5zM111.114258 66.1523438C110.153641 66.1523438 109.38664 65.8487172 108.813232 65.2414551 108.239825 64.6341929 107.953125 63.8291066 107.953125 62.8261719 107.953125 61.7343695 108.251462 60.8816762 108.848144 60.2680664 109.444827 59.6544566 110.250971 59.3476562 111.266602 59.3476562 112.235682 59.3476562 112.992103 59.6459931 113.535889 60.2426758 114.079674 60.8393585 114.351562 61.6666614 114.351562 62.7246094 114.351562 63.7613984 114.058515 64.5918751 113.472412 65.2160645 112.886309 65.8402538 112.100265 66.1523438 111.114258 66.1523438zM111.19043 60.2236328C110.521807 60.2236328 109.99284 60.4510882 109.603516 60.9060059 109.214191 61.3609235 109.019531 61.9882773 109.019531 62.7880859 109.019531 63.5582721 109.216307 64.1655251 109.609863 64.6098633 110.00342 65.0542014 110.53027 65.2763672 111.19043 65.2763672 111.863285 65.2763672 112.380613 65.0584332 112.742432 64.6225586 113.10425 64.186684 113.285156 63.5667358 113.285156 62.7626953 113.285156 61.9501913 113.10425 61.3238954 112.742432 60.8837891 112.380613 60.4436827 111.863285 60.2236328 111.19043 60.2236328zM121.070508 66L120.029492 66 120.029492 64.9716797 120.004102 64.9716797C119.572459 65.758793 118.903846 66.1523438 117.998242 66.1523438 116.449406 66.1523438 115.675 65.2298269 115.675 63.3847656L115.675 59.5 116.709668 59.5 116.709668 63.2197266C116.709668 64.5908272 117.234402 65.2763672 118.283887 65.2763672 118.791702 65.2763672 119.209585 65.0891132 119.537549 64.7145996 119.865513 64.340086 120.029492 63.8502634 120.029492 63.2451172L120.029492 59.5 121.070508 59.5 121.070508 66zM126.36123 60.5537109C126.179263 60.4140618 125.916896 60.3442383 125.574121 60.3442383 125.129783 60.3442383 124.758449 60.5537088 124.460107 60.9726562 124.161766 61.3916037 124.012598 61.962887 124.012598 62.6865234L124.012598 66 122.971582 66 122.971582 59.5 124.012598 59.5 124.012598 60.8393555 124.037988 60.8393555C124.186101 60.3823219 124.412498 60.0257988 124.717187 59.7697754 125.021876 59.513752 125.362531 59.3857422 125.73916 59.3857422 126.009995 59.3857422 126.217349 59.4153643 126.36123 59.4746094L126.36123 60.5537109zM136.2 66L135.158984 66 135.158984 64.8955078 135.133594 64.8955078C134.651169 65.7334026 133.906385 66.1523438 132.899219 66.1523438 132.082483 66.1523438 131.429739 65.8614124 130.940967 65.279541 130.452195 64.6976696 130.207812 63.9052785 130.207812 62.9023438 130.207812 61.8274686 130.478643 60.9663118 131.020312 60.3188477 131.561982 59.6713835 132.283492 59.3476562 133.184863 59.3476562 134.077771 59.3476562 134.727342 59.6988897 135.133594 60.4013672L135.158984 60.4013672 135.158984 56.3769531 136.2 56.3769531 136.2 66zM135.158984 63.0610352L135.158984 62.1025391C135.158984 61.5777969 134.985483 61.1334654 134.638477 60.7695312 134.29147 60.4055971 133.85137 60.2236328 133.318164 60.2236328 132.683395 60.2236328 132.184051 60.4563779 131.820117 60.921875 131.456183 61.3873721 131.274219 62.0305949 131.274219 62.8515625 131.274219 63.6005897 131.448777 64.1919737 131.7979 64.6257324 132.147023 65.0594911 132.615687 65.2763672 133.203906 65.2763672 133.783662 65.2763672 134.254441 65.0668966 134.61626 64.6479492 134.978078 64.2290018 135.158984 63.7000357 135.158984 63.0610352zM142.760254 66L141.719238 66 141.719238 64.984375 141.693848 64.984375C141.241046 65.7630247 140.574549 66.1523438 139.694336 66.1523438 139.046872 66.1523438 138.540122 65.9809587 138.174072 65.6381836 137.808022 65.2954084 137.625 64.8404976 137.625 64.2734375 137.625 63.0589132 138.340162 62.3522145 139.770508 62.1533203L141.719238 61.8803711C141.719238 60.7758734 141.272791 60.2236328 140.379883 60.2236328 139.597001 60.2236328 138.890303 60.4902317 138.259766 61.0234375L138.259766 59.9570312C138.898766 59.5507792 139.635087 59.3476562 140.46875 59.3476562 141.996427 59.3476562 142.760254 60.1559164 142.760254 61.7724609L142.760254 66zM141.719238 62.7119141L140.151367 62.9277344C139.668943 62.995443 139.305014 63.1149894 139.05957 63.286377 138.814126 63.4577645 138.691406 63.761391 138.691406 64.1972656 138.691406 64.51465 138.804605 64.7738434 139.031006 64.9748535 139.257407 65.1758636 139.558917 65.2763672 139.935547 65.2763672 140.451825 65.2763672 140.878172 65.0954608 141.2146 64.7336426 141.551027 64.3718244 141.719238 63.9137398 141.719238 63.359375L141.719238 62.7119141zM147.536816 65.9365234C147.291372 66.0719408 146.967645 66.1396484 146.565625 66.1396484 145.427273 66.1396484 144.858105 65.5048892 144.858105 64.2353516L144.858105 60.3886719 143.740918 60.3886719 143.740918 59.5 144.858105 59.5 144.858105 57.9130859 145.899121 57.5766602 145.899121 59.5 147.536816 59.5 147.536816 60.3886719 145.899121 60.3886719 145.899121 64.0512695C145.899121 64.4871441 145.973176 64.7981762 146.121289 64.984375 146.269402 65.1705738 146.514842 65.2636719 146.857617 65.2636719 147.119988 65.2636719 147.346386 65.1917325 147.536816 65.0478516L147.536816 65.9365234zM153.379785 66L152.338769 66 152.338769 64.984375 152.313379 64.984375C151.860577 65.7630247 151.19408 66.1523438 150.313867 66.1523438 149.666403 66.1523438 149.159653 65.9809587 148.793603 65.6381836 148.427553 65.2954084 148.244531 64.8404976 148.244531 64.2734375 148.244531 63.0589132 148.959693 62.3522145 150.390039 62.1533203L152.338769 61.8803711C152.338769 60.7758734 151.892322 60.2236328 150.999414 60.2236328 150.216532 60.2236328 149.509834 60.4902317 148.879297 61.0234375L148.879297 59.9570312C149.518297 59.5507792 150.254618 59.3476562 151.088281 59.3476562 152.615958 59.3476562 153.379785 60.1559164 153.379785 61.7724609L153.379785 66zM152.338769 62.7119141L150.770898 62.9277344C150.288474 62.995443 149.924545 63.1149894 149.679101 63.286377 149.433658 63.4577645 149.310937 63.761391 149.310937 64.1972656 149.310937 64.51465 149.424136 64.7738434 149.650537 64.9748535 149.876938 65.1758636 150.178449 65.2763672 150.555078 65.2763672 151.071357 65.2763672 151.497703 65.0954608 151.834131 64.7336426 152.170558 64.3718244 152.338769 63.9137398 152.338769 63.359375L152.338769 62.7119141zM156.207617 65.0605469L156.182226 65.0605469 156.182226 66 155.141211 66 155.141211 56.3769531 156.182226 56.3769531 156.182226 60.6425781 156.207617 60.6425781C156.719664 59.7792926 157.46868 59.3476562 158.454687 59.3476562 159.28835 59.3476562 159.941095 59.6385876 160.412939 60.220459 160.884784 60.8023304 161.120703 61.5820264 161.120703 62.5595703 161.120703 63.6471409 160.85622 64.517819 160.327246 65.1716309 159.798272 65.8254427 159.074646 66.1523438 158.156348 66.1523438 157.297294 66.1523438 156.647723 65.7884151 156.207617 65.0605469zM156.182226 62.4389648L156.182226 63.3466797C156.182226 63.8841173 156.356785 64.340086 156.705908 64.7145996 157.055031 65.0891132 157.498305 65.2763672 158.035742 65.2763672 158.666279 65.2763672 159.160333 65.0351587 159.51792 64.5527344 159.875506 64.0703101 160.054297 63.3995811 160.054297 62.5405273 160.054297 61.8168909 159.887144 61.2498393 159.552832 60.8393555 159.21852 60.4288716 158.765725 60.2236328 158.194434 60.2236328 157.589287 60.2236328 157.102638 60.4341613 156.734473 60.8552246 156.366307 61.2762879 156.182226 61.804196 156.182226 62.4389648zM167.065234 66L166.024219 66 166.024219 64.984375 165.998828 64.984375C165.546026 65.7630247 164.879529 66.1523438 163.999316 66.1523438 163.351852 66.1523438 162.845103 65.9809587 162.479053 65.6381836 162.113003 65.2954084 161.92998 64.8404976 161.92998 64.2734375 161.92998 63.0589132 162.645143 62.3522145 164.075488 62.1533203L166.024219 61.8803711C166.024219 60.7758734 165.577771 60.2236328 164.684863 60.2236328 163.901982 60.2236328 163.195283 60.4902317 162.564746 61.0234375L162.564746 59.9570312C163.203747 59.5507792 163.940067 59.3476562 164.77373 59.3476562 166.301407 59.3476562 167.065234 60.1559164 167.065234 61.7724609L167.065234 66zM166.024219 62.7119141L164.456348 62.9277344C163.973923 62.995443 163.609995 63.1149894 163.364551 63.286377 163.119107 63.4577645 162.996387 63.761391 162.996387 64.1972656 162.996387 64.51465 163.109585 64.7738434 163.335986 64.9748535 163.562387 65.1758636 163.863898 65.2763672 164.240527 65.2763672 164.756806 65.2763672 165.183153 65.0954608 165.51958 64.7336426 165.856007 64.3718244 166.024219 63.9137398 166.024219 63.359375L166.024219 62.7119141zM168.433105 65.7651367L168.433105 64.6479492C169.000166 65.0668966 169.624345 65.2763672 170.305664 65.2763672 171.219731 65.2763672 171.676758 64.9716827 171.676758 64.3623047 171.676758 64.1888012 171.637614 64.0417486 171.559326 63.9211426 171.481038 63.8005365 171.375245 63.6936854 171.241943 63.6005859 171.108642 63.5074865 170.952068 63.4239099 170.772217 63.3498535 170.592366 63.2757972 170.398764 63.1985681 170.191406 63.1181641 169.903644 63.0039057 169.650799 62.8885911 169.432861 62.7722168 169.214924 62.6558425 169.03296 62.5246589 168.886963 62.3786621 168.740966 62.2326653 168.630941 62.0665699 168.556885 61.8803711 168.482828 61.6941722 168.445801 61.4762382 168.445801 61.2265625 168.445801 60.9218735 168.515624 60.6521008 168.655273 60.4172363 168.794922 60.1823719 168.981119 59.9855965 169.213867 59.8269043 169.446616 59.6682121 169.712157 59.5486658 170.010498 59.4682617 170.308839 59.3878577 170.616698 59.3476562 170.934082 59.3476562 171.49691 59.3476562 172.000486 59.444986 172.444824 59.6396484L172.444824 60.6933594C171.966632 60.3802068 171.416507 60.2236328 170.794434 60.2236328 170.599771 60.2236328 170.424154 60.2458494 170.267578 60.2902832 170.111002 60.334717 169.976644 60.397135 169.864502 60.4775391 169.752359 60.5579431 169.665609 60.6542149 169.604248 60.7663574 169.542887 60.8784999 169.512207 61.002278 169.512207 61.1376953 169.512207 61.306967 169.542887 61.4487299 169.604248 61.5629883 169.665609 61.6772467 169.755533 61.7788081 169.874023 61.8676758 169.992514 61.9565434 170.136392 62.0369463 170.305664 62.1088867 170.474936 62.1808272 170.667479 62.2591142 170.883301 62.34375 171.171063 62.4537766 171.429198 62.5669753 171.657715 62.6833496 171.886232 62.7997239 172.080891 62.9309075 172.241699 63.0769043 172.402507 63.2229011 172.526285 63.3911123 172.613037 63.581543 172.699789 63.7719736 172.743164 63.9983711 172.743164 64.2607422 172.743164 64.5823584 172.672283 64.8616525 172.530518 65.0986328 172.388752 65.3356132 172.199383 65.5323885 171.962402 65.6889648 171.725422 65.8455411 171.452475 65.9619137 171.143555 66.0380859 170.834634 66.1142582 170.510907 66.1523438 170.172363 66.1523438 169.50374 66.1523438 168.923993 66.023276 168.433105 65.7651367zM179.366894 63.0102539L174.777539 63.0102539C174.794466 63.7338903 174.989126 64.2924785 175.361523 64.6860352 175.733921 65.0795918 176.24596 65.2763672 176.897656 65.2763672 177.629756 65.2763672 178.302601 65.0351587 178.916211 64.5527344L178.916211 65.5302734C178.344919 65.9449891 177.589555 66.1523438 176.650098 66.1523438 175.731799 66.1523438 175.010289 65.8571807 174.485547 65.2668457 173.960805 64.6765107 173.698437 63.846034 173.698437 62.7753906 173.698437 61.7639923 173.985137 60.9398632 174.558545 60.3029785 175.131953 59.6660938 175.843941 59.3476562 176.694531 59.3476562 177.545121 59.3476562 178.203155 59.6227186 178.668652 60.1728516 179.134149 60.7229845 179.366894 61.4868115 179.366894 62.4643555L179.366894 63.0102539zM178.300488 62.1279297C178.296256 61.5270152 178.15132 61.0594092 177.865674 60.7250977 177.580028 60.3907861 177.183303 60.2236328 176.675488 60.2236328 176.1846 60.2236328 175.767775 60.3992495 175.425 60.7504883 175.082225 61.101727 174.870638 61.5608696 174.790234 62.1279297L178.300488 62.1279297zM184.635351 57.8496094C184.449153 57.8496094 184.290463 57.7861334 184.159277 57.6591797 184.028092 57.5322259 183.9625 57.3714202 183.9625 57.1767578 183.9625 56.9820954 184.028092 56.8202318 184.159277 56.6911621 184.290463 56.5620925 184.449153 56.4975586 184.635351 56.4975586 184.825782 56.4975586 184.987646 56.5620925 185.120947 56.6911621 185.254249 56.8202318 185.320898 56.9820954 185.320898 57.1767578 185.320898 57.3629567 185.254249 57.5216465 185.120947 57.652832 184.987646 57.7840176 184.825782 57.8496094 184.635351 57.8496094zM185.143164 66L184.102148 66 184.102148 59.5 185.143164 59.5 185.143164 66zM192.446094 66L191.405078 66 191.405078 62.2929688C191.405078 60.9134046 190.901502 60.2236328 189.894336 60.2236328 189.373825 60.2236328 188.943247 60.4193503 188.602588 60.810791 188.261929 61.2022318 188.091601 61.6962861 188.091601 62.2929688L188.091601 66 187.050586 66 187.050586 59.5 188.091601 59.5 188.091601 60.5791016 188.116992 60.5791016C188.60788 59.7581339 189.31881 59.3476562 190.249805 59.3476562 190.960746 59.3476562 191.504523 59.5772275 191.881152 60.036377 192.257782 60.4955264 192.446094 61.1588498 192.446094 62.0263672L192.446094 66zM202.77998 66L197.632031 66 197.632031 65.0859375 199.688672 65.0859375 199.688672 58.0146484 197.58125 58.6430664 197.58125 57.652832 200.729687 56.6943359 200.729687 65.0859375 202.77998 65.0859375 202.77998 66zM207.702539 62.7880859L204.236719 62.7880859 204.236719 61.9692383 207.702539 61.9692383 207.702539 62.7880859zM213.805762 65.7016602C213.30641 66.0021174 212.713968 66.1523438 212.028418 66.1523438 211.101655 66.1523438 210.353697 65.8508331 209.784521 65.2478027 209.215345 64.6447724 208.930762 63.8629605 208.930762 62.9023438 208.930762 61.8317004 209.237562 60.9716016 209.851172 60.3220215 210.464782 59.6724414 211.283621 59.3476562 212.307715 59.3476562 212.879007 59.3476562 213.382582 59.4534495 213.818457 59.6650391L213.818457 60.7314453C213.336033 60.392902 212.819762 60.2236328 212.269629 60.2236328 211.605237 60.2236328 211.060402 60.4616675 210.635107 60.9377441 210.209812 61.4138207 209.997168 62.0390586 209.997168 62.8134766 209.997168 63.5751991 210.197117 64.1761046 210.597021 64.6162109 210.996926 65.0563173 211.533297 65.2763672 212.206152 65.2763672 212.773212 65.2763672 213.30641 65.0880553 213.805762 64.7114258L213.805762 65.7016602zM216.220996 66L215.17998 66 215.17998 56.3769531 216.220996 56.3769531 216.220996 66zM218.661621 57.8496094C218.475422 57.8496094 218.316732 57.7861334 218.185547 57.6591797 218.054361 57.5322259 217.988769 57.3714202 217.988769 57.1767578 217.988769 56.9820954 218.054361 56.8202318 218.185547 56.6911621 218.316732 56.5620925 218.475422 56.4975586 218.661621 56.4975586 218.852052 56.4975586 219.013915 56.5620925 219.147217 56.6911621 219.280518 56.8202318 219.347168 56.9820954 219.347168 57.1767578 219.347168 57.3629567 219.280518 57.5216465 219.147217 57.652832 219.013915 57.7840176 218.852052 57.8496094 218.661621 57.8496094zM219.169433 66L218.128418 66 218.128418 59.5 219.169433 59.5 219.169433 66zM225.507519 65.7016602C225.008168 66.0021174 224.415726 66.1523438 223.730176 66.1523438 222.803413 66.1523438 222.055455 65.8508331 221.486279 65.2478027 220.917103 64.6447724 220.632519 63.8629605 220.632519 62.9023438 220.632519 61.8317004 220.93932 60.9716016 221.55293 60.3220215 222.166539 59.6724414 222.985379 59.3476562 224.009473 59.3476562 224.580764 59.3476562 225.08434 59.4534495 225.520215 59.6650391L225.520215 60.7314453C225.03779 60.392902 224.52152 60.2236328 223.971387 60.2236328 223.306995 60.2236328 222.76216 60.4616675 222.336865 60.9377441 221.91157 61.4138207 221.698926 62.0390586 221.698926 62.8134766 221.698926 63.5751991 221.898875 64.1761046 222.298779 64.6162109 222.698684 65.0563173 223.235055 65.2763672 223.90791 65.2763672 224.47497 65.2763672 225.008168 65.0880553 225.507519 64.7114258L225.507519 65.7016602zM232.277246 66L230.817285 66 227.948144 62.8769531 227.922754 62.8769531 227.922754 66 226.881738 66 226.881738 56.3769531 227.922754 56.3769531 227.922754 62.4770508 227.948144 62.4770508 230.677637 59.5 232.042383 59.5 229.027246 62.6357422 232.277246 66z"/>
  </g>
</svg>
